{"title":"Gamer (2009) TS XviD-MAX","uid":5091484,"size":1377193346,"categoryP":"video","categoryS":"movies","magnet":"?xt=urn:btih:ead95373a1b68b6727b25a73548f8d72f9641a70&amp;dn=Gamer+%282009%29+TS+XviD-MAX&amp;tr=udp%3A%2F%2Ftracker.openbittorrent.com%3A80&amp;tr=udp%3A%2F%2Fopen.demonii.com%3A1337&amp;tr=udp%3A%2F%2Ftracker.coppersurfer.tk%3A6969&amp;tr=udp%3A%2F%2Fexodus.desync.com%3A6969","seeders":0,"leechers":1,"uploader":"extremezone","files":-1,"time":1253184131,"description":"Gamer (2009) TS XviD-MAX\n\nFormat                           : AVI\nFormat/Info                      : Audio Video Interleave\nFormat profile                   : OpenDML\nFile size                        : 1.28 GiB\nDuration                         : 3h 33mn\nOverall bit rate                 : 859 Kbps\nWriting application              : Lavf52.13.0\nWriting library                  : VirtualDubMod build 2542/release\nOriginal source form             : MAX TORRENTZ\nCopyright                        : SIGISMUNT\n\nVideo\nFormat                           : xvid\nCodec ID                         : xvid\nDuration                         : 3h 33mn\nBit rate                         : 802 Kbps\nWidth                            : 640 pixels\nHeight                           : 480 pixels\nDisplay aspect ratio             : 4:3\nFrame rate                       : 25.000 fps\nResolution                       : 24 bits\nBits/(Pixel*Frame)               : 0.104\nStream size                      : 1.20 GiB (93%)\n\nAudio\nID                               : 1\nFormat                           : MPEG Audio\nFormat version                   : Version 1\nFormat profile                   : Layer 3\nCodec ID                         : 55\nCodec ID/Hint                    : MP3\nDuration                         : 1h 24mn\nBit rate mode                    : Constant\nBit rate                         : 128 Kbps\nChannel(s)                       : 2 channels\nSampling rate                    : 44.1 KHz\nResolution                       : 16 bits\nStream size                      : 77.3 MiB (6%)\nAlignment                        : Aligned on interleaves\nInterleave, duration             : 26 ms (0.65 video frame)\nWriting library                  : LAME\n\nScreens: &lt;a href=&quot;\nhttp://www.postimg.com/image/7000/6393.jpg&quot; rel=&quot;nofollow&quot; target=&quot;_NEW&quot;&gt;\nhttp://www.postimg.com/image/7000/6393.jpg&lt;/a&gt; &lt;a href=&quot;\nhttp://www.postimg.com/image/7000/6394.jpg&quot; rel=&quot;nofollow&quot; target=&quot;_NEW&quot;&gt;\nhttp://www.postimg.com/image/7000/6394.jpg&lt;/a&gt; &lt;a href=&quot;\nhttp://www.postimg.com/image/7000/6395.jpg&quot; rel=&quot;nofollow&quot; target=&quot;_NEW&quot;&gt;\nhttp://www.postimg.com/image/7000/6395.jpg&lt;/a&gt; &lt;a href=&quot;\nhttp://www.postimg.com/image/7000/6396.jpg&quot; rel=&quot;nofollow&quot; target=&quot;_NEW&quot;&gt;\nhttp://www.postimg.com/image/7000/6396.jpg&lt;/a&gt;\n\nScreenCaps: &lt;a href=&quot;\nhttp://www.postimg.com/image/7000/6397.jpg&quot; rel=&quot;nofollow&quot; target=&quot;_NEW&quot;&gt;\nhttp://www.postimg.com/image/7000/6397.jpg&lt;/a&gt;\n\n\n","torrent":{"xt":"urn:btih:ead95373a1b68b6727b25a73548f8d72f9641a70","amp;dn":"Gamer+%282009%29+TS+XviD-MAX","amp;tr":["udp%3A%2F%2Ftracker.openbittorrent.com%3A80","udp%3A%2F%2Fopen.demonii.com%3A1337","udp%3A%2F%2Ftracker.coppersurfer.tk%3A6969","udp%3A%2F%2Fexodus.desync.com%3A6969"],"infoHash":"ead95373a1b68b6727b25a73548f8d72f9641a70","infoHashBuffer":{"type":"Buffer","data":[234,217,83,115,161,182,139,103,39,178,90,115,84,143,141,114,249,100,26,112]},"announce":[],"urlList":[]}}